<svg width="64" height="64" viewBox="0 0 64 64" fill="none" xmlns="http://www.w3.org/2000/svg">
<rect width="64" height="64" rx="16" fill="#DC0404" fill-opacity="0.1"/>
<path d="M32 40H32.0133M26.6667 44H37.3333C38.0406 44 38.7189 43.719 39.219 43.219C39.719 42.7189 40 42.0406 40 41.3333V22.6667C40 21.9594 39.719 21.2811 39.219 20.781C38.7189 20.281 38.0406 20 37.3333 20H26.6667C25.9594 20 25.2811 20.281 24.781 20.781C24.281 21.2811 24 21.9594 24 22.6667V41.3333C24 42.0406 24.281 42.7189 24.781 43.219C25.2811 43.719 25.9594 44 26.6667 44Z" stroke="#DC0404" stroke-width="2.66667" stroke-linecap="round" stroke-linejoin="round"/>
</svg>
