<svg width="118" height="50" viewBox="0 0 118 50" fill="none" xmlns="http://www.w3.org/2000/svg">
<rect width="117.721" height="50" rx="10" fill="#E62429"/>
<path d="M53.9328 22.3622H51.2765C51.2008 21.9266 51.0611 21.5407 50.8575 21.2045C50.6539 20.8636 50.4006 20.5748 50.0976 20.3381C49.7945 20.1013 49.4489 19.9238 49.0606 19.8054C48.6771 19.6823 48.2628 19.6207 47.8177 19.6207C47.027 19.6207 46.3263 19.8196 45.7155 20.2173C45.1047 20.6103 44.6265 21.188 44.2808 21.9503C43.9352 22.7079 43.7623 23.6335 43.7623 24.7273C43.7623 25.84 43.9352 26.7775 44.2808 27.5398C44.6312 28.2973 45.1094 28.8703 45.7155 29.2585C46.3263 29.642 47.0247 29.8338 47.8106 29.8338C48.2462 29.8338 48.6534 29.777 49.0322 29.6634C49.4157 29.545 49.759 29.3722 50.0621 29.1449C50.3698 28.9176 50.6279 28.6383 50.8362 28.3068C51.0493 27.9754 51.1961 27.5966 51.2765 27.1705L53.9328 27.1847C53.8334 27.8759 53.6179 28.5246 53.2865 29.1307C52.9598 29.7367 52.5313 30.2718 52.001 30.7358C51.4707 31.1951 50.8504 31.5549 50.1402 31.8153C49.43 32.071 48.6416 32.1989 47.7751 32.1989C46.4967 32.1989 45.3556 31.9029 44.3518 31.3111C43.348 30.7192 42.5573 29.8646 41.9797 28.7472C41.402 27.6297 41.1132 26.2898 41.1132 24.7273C41.1132 23.16 41.4044 21.8201 41.9868 20.7074C42.5692 19.59 43.3622 18.7353 44.366 18.1435C45.3698 17.5516 46.5062 17.2557 47.7751 17.2557C48.5848 17.2557 49.3376 17.3693 50.0336 17.5966C50.7297 17.8239 51.3499 18.1577 51.8944 18.598C52.439 19.0336 52.8864 19.5687 53.2368 20.2031C53.5919 20.8329 53.8239 21.5526 53.9328 22.3622ZM56.2322 32V21.0909H58.7251V22.9091H58.8387C59.0376 22.2794 59.3785 21.794 59.8614 21.4531C60.3491 21.1075 60.9055 20.9347 61.5305 20.9347C61.6725 20.9347 61.8311 20.9418 62.0063 20.956C62.1862 20.9654 62.3354 20.982 62.4537 21.0057V23.3707C62.3448 23.3329 62.172 23.2997 61.9353 23.2713C61.7033 23.2382 61.4784 23.2216 61.2606 23.2216C60.7918 23.2216 60.3704 23.3234 59.9964 23.527C59.627 23.7259 59.3358 24.0028 59.1228 24.358C58.9097 24.7131 58.8032 25.1226 58.8032 25.5866V32H56.2322ZM68.5422 32.2131C67.4484 32.2131 66.5038 31.9858 65.7084 31.5312C64.9176 31.072 64.3092 30.4233 63.8831 29.5852C63.4569 28.7424 63.2439 27.7505 63.2439 26.6094C63.2439 25.4872 63.4569 24.5024 63.8831 23.6548C64.314 22.8026 64.9153 22.1397 65.6871 21.6662C66.4588 21.188 67.3656 20.9489 68.4072 20.9489C69.0796 20.9489 69.714 21.0578 70.3106 21.2756C70.912 21.4886 71.4423 21.8201 71.9015 22.2699C72.3656 22.7197 72.7301 23.2926 72.9953 23.9886C73.2604 24.6799 73.393 25.5038 73.393 26.4602V27.2486H64.4513V25.5156H70.9285C70.9238 25.0232 70.8173 24.5852 70.6089 24.2017C70.4006 23.8134 70.1094 23.508 69.7354 23.2855C69.366 23.063 68.9352 22.9517 68.4427 22.9517C67.9172 22.9517 67.4555 23.0795 67.0578 23.3352C66.6601 23.5862 66.3499 23.9176 66.1274 24.3295C65.9096 24.7367 65.7983 25.1842 65.7936 25.6719V27.1847C65.7936 27.8191 65.9096 28.3636 66.1416 28.8182C66.3736 29.268 66.6979 29.6136 67.1146 29.8551C67.5313 30.0919 68.019 30.2102 68.5777 30.2102C68.9517 30.2102 69.2903 30.1581 69.5933 30.054C69.8963 29.9451 70.1591 29.7865 70.3817 29.5781C70.6042 29.3698 70.7723 29.1117 70.8859 28.804L73.2865 29.0739C73.135 29.7083 72.8461 30.2623 72.42 30.7358C71.9986 31.2045 71.4588 31.5691 70.8007 31.8295C70.1425 32.0852 69.3897 32.2131 68.5422 32.2131ZM78.7073 32.2202C78.016 32.2202 77.3934 32.0971 76.8394 31.8509C76.2902 31.5999 75.8546 31.2306 75.5326 30.7429C75.2153 30.2552 75.0567 29.6539 75.0567 28.9389C75.0567 28.3234 75.1704 27.8144 75.3976 27.4119C75.6249 27.0095 75.935 26.6875 76.328 26.446C76.721 26.2045 77.1637 26.0223 77.6562 25.8991C78.1533 25.7713 78.6671 25.679 79.1974 25.6222C79.8366 25.5559 80.355 25.4967 80.7528 25.4446C81.1505 25.3878 81.4393 25.3026 81.6192 25.1889C81.8039 25.0705 81.8962 24.8883 81.8962 24.642V24.5994C81.8962 24.0644 81.7376 23.6501 81.4204 23.3565C81.1031 23.063 80.6462 22.9162 80.0496 22.9162C79.4199 22.9162 78.9204 23.0535 78.551 23.3281C78.1865 23.6027 77.9403 23.9271 77.8124 24.3011L75.4118 23.9602C75.6012 23.2973 75.9137 22.7434 76.3493 22.2983C76.7849 21.8485 77.3176 21.5123 77.9474 21.2898C78.5771 21.0625 79.2731 20.9489 80.0354 20.9489C80.561 20.9489 81.0842 21.0104 81.605 21.1335C82.1259 21.2566 82.6017 21.4602 83.0326 21.7443C83.4635 22.0237 83.8091 22.4048 84.0695 22.8878C84.3347 23.3707 84.4672 23.9744 84.4672 24.6989V32H81.9957V30.5014H81.9104C81.7542 30.8045 81.534 31.0885 81.2499 31.3537C80.9706 31.6141 80.6178 31.8248 80.1917 31.9858C79.7703 32.142 79.2755 32.2202 78.7073 32.2202ZM79.3749 30.331C79.891 30.331 80.3385 30.2292 80.7172 30.0256C81.096 29.8172 81.3872 29.5426 81.5908 29.2017C81.7992 28.8608 81.9033 28.4891 81.9033 28.0866V26.8011C81.8228 26.8674 81.6855 26.929 81.4914 26.9858C81.302 27.0426 81.0889 27.0923 80.8522 27.1349C80.6154 27.1776 80.3811 27.2154 80.1491 27.2486C79.9171 27.2817 79.7158 27.3101 79.5454 27.3338C79.1618 27.3859 78.8186 27.4711 78.5155 27.5895C78.2125 27.7079 77.9734 27.8736 77.7982 28.0866C77.623 28.295 77.5354 28.5649 77.5354 28.8963C77.5354 29.3698 77.7082 29.7273 78.0539 29.9688C78.3995 30.2102 78.8399 30.331 79.3749 30.331ZM92.4999 21.0909V23.0795H86.2286V21.0909H92.4999ZM87.7769 18.4773H90.3479V28.7188C90.3479 29.0644 90.4 29.3295 90.5042 29.5142C90.6131 29.6941 90.7551 29.8172 90.9303 29.8835C91.1055 29.9498 91.2996 29.983 91.5127 29.983C91.6737 29.983 91.8205 29.9711 91.953 29.9474C92.0903 29.9238 92.1945 29.9025 92.2655 29.8835L92.6988 31.8935C92.5615 31.9408 92.365 31.9929 92.1093 32.0497C91.8583 32.1065 91.5506 32.1397 91.186 32.1491C90.5421 32.1681 89.962 32.071 89.4459 31.858C88.9298 31.6402 88.5203 31.304 88.2172 30.8494C87.9189 30.3949 87.7722 29.8267 87.7769 29.1449V18.4773ZM99.3625 32.2131C98.2687 32.2131 97.3241 31.9858 96.5287 31.5312C95.738 31.072 95.1295 30.4233 94.7034 29.5852C94.2773 28.7424 94.0642 27.7505 94.0642 26.6094C94.0642 25.4872 94.2773 24.5024 94.7034 23.6548C95.1343 22.8026 95.7356 22.1397 96.5074 21.6662C97.2791 21.188 98.1859 20.9489 99.2275 20.9489C99.8999 20.9489 100.534 21.0578 101.131 21.2756C101.732 21.4886 102.263 21.8201 102.722 22.2699C103.186 22.7197 103.55 23.2926 103.816 23.9886C104.081 24.6799 104.213 25.5038 104.213 26.4602V27.2486H95.2716V25.5156H101.749C101.744 25.0232 101.638 24.5852 101.429 24.2017C101.221 23.8134 100.93 23.508 100.556 23.2855C100.186 23.063 99.7555 22.9517 99.2631 22.9517C98.7375 22.9517 98.2758 23.0795 97.8781 23.3352C97.4804 23.5862 97.1702 23.9176 96.9477 24.3295C96.7299 24.7367 96.6186 25.1842 96.6139 25.6719V27.1847C96.6139 27.8191 96.7299 28.3636 96.9619 28.8182C97.1939 29.268 97.5183 29.6136 97.9349 29.8551C98.3516 30.0919 98.8393 30.2102 99.398 30.2102C99.772 30.2102 100.111 30.1581 100.414 30.054C100.717 29.9451 100.979 29.7865 101.202 29.5781C101.425 29.3698 101.593 29.1117 101.706 28.804L104.107 29.0739C103.955 29.7083 103.666 30.2623 103.24 30.7358C102.819 31.2045 102.279 31.5691 101.621 31.8295C100.963 32.0852 100.21 32.2131 99.3625 32.2131Z" fill="white"/>
<path d="M32.1558 27.2857H23.1192V36.2143C23.1192 36.6879 22.9288 37.1421 22.5898 37.477C22.2509 37.8119 21.7912 38 21.3119 38C20.8325 38 20.3728 37.8119 20.0339 37.477C19.695 37.1421 19.5046 36.6879 19.5046 36.2143V27.2857H10.468C9.98863 27.2857 9.52893 27.0976 9.19 26.7627C8.85106 26.4278 8.66064 25.9736 8.66064 25.5C8.66064 25.0264 8.85106 24.5722 9.19 24.2373C9.52893 23.9024 9.98863 23.7143 10.468 23.7143H19.5046V14.7857C19.5046 14.3121 19.695 13.8579 20.0339 13.523C20.3728 13.1881 20.8325 13 21.3119 13C21.7912 13 22.2509 13.1881 22.5898 13.523C22.9288 13.8579 23.1192 14.3121 23.1192 14.7857V23.7143H32.1558C32.6351 23.7143 33.0948 23.9024 33.4337 24.2373C33.7727 24.5722 33.9631 25.0264 33.9631 25.5C33.9631 25.9736 33.7727 26.4278 33.4337 26.7627C33.0948 27.0976 32.6351 27.2857 32.1558 27.2857Z" fill="white"/>
</svg>
