<svg width="16" height="16" viewBox="0 0 16 16" fill="none" xmlns="http://www.w3.org/2000/svg">
<path d="M15.04 8.16663C15.04 7.64663 14.9933 7.14663 14.9067 6.66663H8V9.50663H11.9467C11.7733 10.42 11.2533 11.1933 10.4733 11.7133V13.56H12.8533C14.24 12.28 15.04 10.4 15.04 8.16663Z" fill="white"/>
<path d="M7.99979 15.3334C9.97979 15.3334 11.6398 14.68 12.8531 13.56L10.4731 11.7134C9.81979 12.1534 8.98646 12.42 7.99979 12.42C6.09312 12.42 4.47313 11.1334 3.89313 9.40002H1.45312V11.2934C2.65979 13.6867 5.13312 15.3334 7.99979 15.3334Z" fill="white"/>
<path d="M3.89366 9.39338C3.74699 8.95338 3.66033 8.48671 3.66033 8.00005C3.66033 7.51338 3.74699 7.04671 3.89366 6.60671V4.71338H1.45366C0.953659 5.70005 0.666992 6.81338 0.666992 8.00005C0.666992 9.18671 0.953659 10.3 1.45366 11.2867L3.35366 9.80671L3.89366 9.39338Z" fill="white"/>
<path d="M7.99979 3.58663C9.07979 3.58663 10.0398 3.95996 10.8065 4.67996L12.9065 2.57996C11.6331 1.39329 9.97979 0.666626 7.99979 0.666626C5.13312 0.666626 2.65979 2.31329 1.45312 4.71329L3.89313 6.60663C4.47313 4.87329 6.09312 3.58663 7.99979 3.58663Z" fill="white"/>
</svg>
