<svg width="64" height="64" viewBox="0 0 64 64" fill="none" xmlns="http://www.w3.org/2000/svg">
<rect width="64" height="64" rx="16" fill="#DC0404" fill-opacity="0.1"/>
<path d="M21.7574 24.424C21.2002 24.9812 20.7583 25.6426 20.4567 26.3706C20.1552 27.0985 20 27.8787 20 28.6667C20 29.4546 20.1552 30.2348 20.4567 30.9628C20.7583 31.6908 21.2002 32.3522 21.7574 32.9093L32.0001 43.152L42.2427 32.9093C43.3679 31.7841 44.0001 30.258 44.0001 28.6667C44.0001 27.0754 43.3679 25.5492 42.2427 24.424C41.1175 23.2988 39.5914 22.6666 38.0001 22.6666C36.4087 22.6666 34.8826 23.2988 33.7574 24.424L32.0001 26.1813L30.2427 24.424C29.6856 23.8669 29.0241 23.4249 28.2962 23.1234C27.5682 22.8218 26.788 22.6666 26.0001 22.6666C25.2121 22.6666 24.4319 22.8218 23.7039 23.1234C22.976 23.4249 22.3145 23.8669 21.7574 24.424Z" stroke="#DC0404" stroke-width="2.66667" stroke-linecap="round" stroke-linejoin="round"/>
</svg>
