<svg width="50" height="50" viewBox="0 0 50 50" fill="none" xmlns="http://www.w3.org/2000/svg">
<rect width="50" height="50" rx="10" fill="#E62429"/>
<path d="M35.7143 26.7857H26.7857V35.7143C26.7857 36.1879 26.5976 36.6421 26.2627 36.977C25.9278 37.3119 25.4736 37.5 25 37.5C24.5264 37.5 24.0722 37.3119 23.7373 36.977C23.4024 36.6421 23.2143 36.1879 23.2143 35.7143V26.7857H14.2857C13.8121 26.7857 13.3579 26.5976 13.023 26.2627C12.6881 25.9278 12.5 25.4736 12.5 25C12.5 24.5264 12.6881 24.0722 13.023 23.7373C13.3579 23.4024 13.8121 23.2143 14.2857 23.2143H23.2143V14.2857C23.2143 13.8121 23.4024 13.3579 23.7373 13.023C24.0722 12.6881 24.5264 12.5 25 12.5C25.4736 12.5 25.9278 12.6881 26.2627 13.023C26.5976 13.3579 26.7857 13.8121 26.7857 14.2857V23.2143H35.7143C36.1879 23.2143 36.6421 23.4024 36.977 23.7373C37.3119 24.0722 37.5 24.5264 37.5 25C37.5 25.4736 37.3119 25.9278 36.977 26.2627C36.6421 26.5976 36.1879 26.7857 35.7143 26.7857Z" fill="#E3E2E2"/>
</svg>
