<svg width="19" height="18" viewBox="0 0 19 18" fill="none" xmlns="http://www.w3.org/2000/svg">
<path fill-rule="evenodd" clip-rule="evenodd" d="M8.53967 4.75504L0.831934 12.8801C-0.32231 14.0925 -0.267754 15.949 0.947408 17.1006C2.16578 18.2553 4.12478 18.3039 5.40407 17.2131L13.9775 9.9084C15.292 9.91752 16.5938 9.46174 17.5557 8.54106C19.5436 6.66323 19.4794 3.52442 17.3633 1.53417C15.2761 -0.453037 11.9639 -0.510769 9.98247 1.36705C9.01098 2.28773 8.53005 3.50923 8.53967 4.75504ZM12.5187 8.9391L4.24331 15.9916C3.65016 16.496 2.73959 16.4747 2.17529 15.9369C1.611 15.4021 1.5887 14.5422 2.12094 13.9801C4.2595 11.7285 8.07817 7.70243 9.56266 6.13758L12.5187 8.9391ZM14.25 8.25542L10.2841 4.49676C10.3354 3.77055 10.6399 3.07164 11.2106 2.53078C12.5348 1.27586 14.7438 1.37006 16.145 2.6979C17.5557 4.02575 17.6519 6.12235 16.3373 7.37727C15.7538 7.91509 15.0163 8.20681 14.25 8.25542Z" fill="#B3B3B3"/>
</svg>
