<svg width="64" height="64" viewBox="0 0 64 64" fill="none" xmlns="http://www.w3.org/2000/svg">
<rect width="64" height="64" rx="16" fill="#DC0404" fill-opacity="0.1"/>
<path d="M28 41.3333V24L44 20V37.3333M28 41.3333C28 42.8067 26.2093 44 24 44C21.7907 44 20 42.8067 20 41.3333C20 39.86 21.7907 38.6667 24 38.6667C26.2093 38.6667 28 39.86 28 41.3333ZM44 37.3333C44 38.8067 42.2093 40 40 40C37.7907 40 36 38.8067 36 37.3333C36 35.86 37.7907 34.6667 40 34.6667C42.2093 34.6667 44 35.86 44 37.3333ZM28 29.3333L44 25.3333" stroke="#DC0404" stroke-width="2.66667" stroke-linecap="round" stroke-linejoin="round"/>
</svg>
