<svg width="20" height="18" viewBox="0 0 20 18" fill="none" xmlns="http://www.w3.org/2000/svg">
<path fill-rule="evenodd" clip-rule="evenodd" d="M19.1709 16.0533C19.1709 15.9822 19.11 15.9289 19.0339 15.9289C17.4553 15.9289 2.50661 15.9289 0.928056 15.9289C0.855784 15.9289 0.794924 15.9822 0.794924 16.0533C0.794924 16.4227 0.794924 17.5027 0.794924 17.8757C0.794924 17.9432 0.855784 18 0.928056 18C2.50661 18 17.4553 18 19.0339 18C19.11 18 19.1709 17.9432 19.1709 17.8757V16.0533ZM19.1709 10.4192C19.1709 10.3517 19.11 10.2949 19.0339 10.2949C17.4553 10.2949 2.50661 10.2949 0.928056 10.2949C0.855784 10.2949 0.794924 10.3517 0.794924 10.4192C0.794924 10.7922 0.794924 11.8721 0.794924 12.2416C0.794924 12.3091 0.855784 12.3659 0.928056 12.3659C2.50661 12.3659 17.4553 12.3659 19.0339 12.3659C19.11 12.3659 19.1709 12.3091 19.1709 12.2416V10.4192ZM0 3.25404C0 1.45654 1.55954 0 3.48043 0H16.5005C18.4214 0 20 1.45654 20 3.25404C20 5.048 18.4214 6.50448 16.5005 6.50448H3.48043C1.55954 6.50448 0 5.048 0 3.25404ZM2.21747 3.25404C2.21747 2.6004 2.78435 2.07461 3.48043 2.07461H16.5005C17.1966 2.07461 17.7635 2.6004 17.7635 3.25404C17.7635 3.90413 17.1966 4.43341 16.5005 4.43341H3.48043C2.78435 4.43341 2.21747 3.90413 2.21747 3.25404Z" fill="#B3B3B3"/>
</svg>
