<svg width="19" height="17" viewBox="0 0 19 17" fill="none" xmlns="http://www.w3.org/2000/svg">
<path d="M6.5489 0.500016C5.1082 0.500016 4.23027 0.500016 3.50992 0.756339C2.87295 0.98357 2.29439 1.35352 1.81706 1.8388C1.33973 2.32409 0.975842 2.91229 0.752336 3.55987C0.499088 4.29451 0.499088 5.18478 0.500214 6.64948V9.0754C0.500214 11.2839 2.26732 13.0804 4.43962 13.0804C4.58888 13.0804 4.73202 13.0202 4.83756 12.9129C4.94311 12.8056 5.0024 12.66 5.0024 12.5083C5.0024 12.3566 4.94311 12.211 4.83756 12.1037C4.73202 11.9964 4.58888 11.9361 4.43962 11.9361C3.69334 11.9361 2.97762 11.6347 2.44992 11.0983C1.92222 10.5618 1.62576 9.83411 1.62576 9.0754V6.7868C1.62576 5.13901 1.63364 4.46387 1.81485 3.93749C1.98241 3.45097 2.2556 3.00907 2.61412 2.64457C2.97265 2.28007 3.40731 2.00234 3.88586 1.83198C4.40473 1.64775 5.06768 1.63974 6.68846 1.63974H12.3162C13.937 1.63974 14.6011 1.64775 15.1188 1.83198C16.089 2.17756 16.8521 2.95225 17.1898 3.93749C17.371 4.46501 17.3789 5.13901 17.3789 6.7868C17.3789 8.43459 17.371 9.10972 17.1898 9.6361C17.0222 10.1226 16.7491 10.5645 16.3905 10.929C16.032 11.2935 15.5973 11.5713 15.1188 11.7416C14.5999 11.9258 13.937 11.9339 12.3162 11.9339H9.17592L11.5958 9.47361C11.6984 9.3657 11.7551 9.22118 11.7538 9.07116C11.7525 8.92114 11.6933 8.77764 11.589 8.67156C11.4846 8.56548 11.3435 8.50531 11.1959 8.504C11.0484 8.5027 10.9062 8.56037 10.8001 8.66459L7.42345 12.0975C7.31794 12.2048 7.25867 12.3503 7.25867 12.502C7.25867 12.6537 7.31794 12.7992 7.42345 12.9065L10.8001 16.3394C10.9062 16.4436 11.0484 16.5013 11.1959 16.5C11.3435 16.4987 11.4846 16.4385 11.589 16.3324C11.6933 16.2264 11.7525 16.0829 11.7538 15.9328C11.7551 15.7828 11.6984 15.6383 11.5958 15.5304L9.17592 13.0701H12.4513C13.892 13.0701 14.7699 13.0701 15.4902 12.8138C16.1272 12.5866 16.7058 12.2166 17.1831 11.7314C17.6604 11.2461 18.0243 10.6579 18.2478 10.0103C18.5011 9.27565 18.5011 8.38538 18.4999 6.92068V6.65291C18.4999 5.18821 18.4999 4.29566 18.2478 3.56331C18.0243 2.91572 17.6604 2.32752 17.1831 1.84223C16.7058 1.35695 16.1272 0.987003 15.4902 0.759772C14.7676 0.502305 13.892 0.502305 12.4513 0.503449H6.56465L6.5489 0.500016Z" fill="#B3B3B3" stroke="#B3B3B3"/>
</svg>
