<svg width="24" height="24" viewBox="0 0 24 24" fill="none" xmlns="http://www.w3.org/2000/svg">
<path d="M13.0782 22.4051L7.54784 17.1949C7.3135 16.9738 7.01602 16.8524 6.70849 16.8522H3.34459C2.65647 16.8522 1.99652 16.5487 1.50994 16.0086C1.02336 15.4685 0.75 14.7359 0.75 13.972V9.52797C0.75 8.76411 1.02336 8.03153 1.50994 7.4914C1.99652 6.95127 2.65647 6.64783 3.34459 6.64783H6.70978C7.01732 6.64763 7.31479 6.52616 7.54914 6.30509L13.0782 1.09203C13.2669 0.914275 13.4975 0.800154 13.7428 0.763134C13.988 0.726114 14.2377 0.767741 14.4623 0.883104C14.6869 0.998466 14.8771 1.18275 15.0105 1.4142C15.1438 1.64566 15.2147 1.91463 15.2149 2.18937V21.3106C15.2147 21.5854 15.1438 21.8543 15.0105 22.0858C14.8771 22.3173 14.6869 22.5015 14.4623 22.6169C14.2377 22.7323 13.988 22.7739 13.7428 22.7369C13.4975 22.6998 13.2669 22.5857 13.0782 22.408V22.4051Z" stroke="black" stroke-width="2.0" stroke-linejoin="round"/>
<path d="M18.8008 6.7688C19.4235 7.27282 19.9424 7.99862 20.3031 8.87418C20.6624 9.74831 20.8531 10.7391 20.8531 11.7486C20.8531 12.7566 20.6624 13.7503 20.3031 14.6229C19.9424 15.4971 19.4248 16.2243 18.8008 16.7283" stroke="black" stroke-width="3.0" stroke-linecap="round" stroke-linejoin="round"/>
</svg>
