<svg width="20" height="18" viewBox="0 0 20 18" fill="none" xmlns="http://www.w3.org/2000/svg">
<path fill-rule="evenodd" clip-rule="evenodd" d="M0.0799766 7.9777C-0.0324351 8.68626 -0.0258227 9.40987 0.0965078 10.1245C0.281657 11.2189 0.99916 12.1747 2.05054 12.7325C4.93026 14.2612 11.751 17.8824 11.751 17.8824C12.0518 18.0392 12.419 18.0392 12.7198 17.8824C13.0174 17.7256 13.2026 17.4361 13.2026 17.1226V0.880073C13.2026 0.5665 13.0174 0.274009 12.7198 0.117222C12.419 -0.039565 12.0518 -0.0395768 11.751 0.120225C11.751 0.120225 4.93026 3.73842 2.05054 5.26709C0.99916 5.82489 0.281657 6.78369 0.0965078 7.87818L0.0799766 7.9777ZM14.7896 2.46001C14.7896 2.42685 14.8061 2.39366 14.8392 2.37557C14.8689 2.35446 14.9084 2.35143 14.9415 2.36349C17.8972 3.36452 20 5.96053 20 8.99979C20 12.0421 17.8972 14.6351 14.9415 15.6391C14.9084 15.6512 14.8689 15.6452 14.8392 15.6271C14.8094 15.606 14.7896 15.5758 14.7896 15.5426C14.7896 15.1748 14.7896 14.2311 14.7896 13.9024C14.7896 13.8331 14.8325 13.7668 14.902 13.7366C16.7832 12.8532 18.0726 11.0621 18.0726 8.99979C18.0726 6.93744 16.7832 5.14946 14.902 4.26603C14.8325 4.23286 14.7896 4.16956 14.7896 4.0972C14.7896 3.76855 14.7896 2.82485 14.7896 2.46001ZM2.00095 8.15555V8.14954C2.09683 7.57968 2.47389 7.07918 3.01942 6.78973L11.2716 2.40872C11.2716 2.40872 11.2716 13.5949 11.2716 15.3587C11.2716 15.407 11.2453 15.4522 11.199 15.4763C11.1527 15.5004 11.0998 15.5004 11.0536 15.4763C8.84499 14.3034 4.99985 12.2652 3.01942 11.2129C2.47389 10.9235 2.09683 10.423 2.00095 9.85309C1.90507 9.28926 1.90507 8.71337 2.00095 8.14954V8.15555ZM14.7896 5.85804C14.7896 5.81583 14.816 5.77661 14.8557 5.75852C14.8987 5.74043 14.9482 5.74346 14.9846 5.77059C16.0393 6.51835 16.7204 7.6882 16.7204 8.99979C16.7204 10.3144 16.0393 11.4813 14.9846 12.232C14.9482 12.2562 14.8987 12.2591 14.8557 12.2411C14.816 12.223 14.7896 12.1838 14.7896 12.1446C14.7896 11.1315 14.7896 6.87113 14.7896 5.85804ZM0.0799766 7.97464L0.0934082 7.88419C0.0901019 7.91434 0.0832828 7.94449 0.0799766 7.97464L0.0404569 8.20684L0.0799766 7.9777V7.97464Z" fill="#B3B3B3"/>
</svg>
